<svg id="Layer_1" data-name="Layer 1" xmlns="http://www.w3.org/2000/svg" viewBox="0 0 301.86 63.58"><defs><style>.cls-1{fill:#f08590;}.cls-2{fill:#f6b2b6;}</style></defs><title>logo</title><path class="cls-1" d="M74.48,13.06c8.94,0,13,5.28,13,11.76S83.18,36.27,73.7,36.27H67.58V54H61.7V13.06H74.48ZM67.58,31h6.66c4.38,0,7.2-2.34,7.2-6.42,0-3-1.62-6.24-7-6.24h-6.9V31Z" transform="translate(-61.7 -13.06)"/><path class="cls-1" d="M112.88,51.33a17.53,17.53,0,0,1-10.74,3.18c-8.4,0-13.08-6.9-13.08-14.34,0-8.16,5.16-13.68,12.6-13.68,7.14,0,11.7,4.86,11.7,14.82h-19c0.84,5.34,3.9,8.1,9.06,8.1a17.15,17.15,0,0,0,9.42-3.24v5.16Zm-4.8-13.56c-0.18-4.08-2.52-6.66-6.3-6.66-4.08,0-6.54,2.4-7.26,6.66h13.56Z" transform="translate(-61.7 -13.06)"/><path class="cls-1" d="M124.82,27v6.18h0.12c2.7-4.74,5.28-6.72,7.8-6.72,2.16,0,4.2,1,6.42,3.12l-2.82,4.62c-1.62-1.56-3.72-2.64-5-2.64-3.66,0-6.54,3.66-6.54,8.28V54h-5.34V27h5.34Z" transform="translate(-61.7 -13.06)"/><path class="cls-1" d="M158.54,34a15.1,15.1,0,0,0-7.8-2.82c-2.16,0-3.54,1-3.54,2.46,0,1.2,1.8,2.64,6.54,5.4,4.44,2.94,6.06,4.8,6.06,7.56,0,4.74-3.78,7.92-8.88,7.92a18.69,18.69,0,0,1-9.36-2.46V46.29c3.48,2.4,6.66,3.54,8.82,3.54s4-1.14,4-3.06c0-3.72-12.6-5.7-12.6-13,0-4.56,3.48-7.32,8.88-7.32a16.73,16.73,0,0,1,7.92,2.22V34Z" transform="translate(-61.7 -13.06)"/><path class="cls-1" d="M188.48,51.33a17.53,17.53,0,0,1-10.74,3.18c-8.4,0-13.08-6.9-13.08-14.34,0-8.16,5.16-13.68,12.6-13.68,7.14,0,11.7,4.86,11.7,14.82H170c0.84,5.34,3.9,8.1,9.06,8.1a17.15,17.15,0,0,0,9.42-3.24v5.16Zm-4.8-13.56c-0.18-4.08-2.52-6.66-6.3-6.66-4.08,0-6.54,2.4-7.26,6.66h13.56Z" transform="translate(-61.7 -13.06)"/><path class="cls-1" d="M199.7,67.77h-5.34V27h9.24c9.84,0,15.18,4.8,15.18,13.68,0,8.1-5.7,13.8-13.68,13.8a13.6,13.6,0,0,1-5.4-1.2V67.77Zm0-19.26a11.72,11.72,0,0,0,5,1.2c5,0,8.58-3.84,8.58-9.06,0-5.58-2.94-8.82-8.76-8.82H199.7V48.51Z" transform="translate(-61.7 -13.06)"/><path class="cls-1" d="M229.94,30.57h0.12a10.41,10.41,0,0,1,8-4.08c5.28,0,9.18,3.6,9.18,11V54h-5.34V37.29c0-4-2-6.54-5.28-6.54-2.34,0-4.2,1.08-6.72,3.9V54H224.6V13.06h5.34V30.57Z" transform="translate(-61.7 -13.06)"/><path class="cls-1" d="M281.9,40.23c0,8.52-5.94,14.28-14.58,14.28-8.28,0-14.22-6-14.22-14.28,0-7.74,6.18-13.74,14.22-13.74C275.78,26.49,281.9,32.25,281.9,40.23Zm-23.34,0c0,5.7,3.54,9.48,8.7,9.48,5.64,0,9.18-3.6,9.18-9.42a8.78,8.78,0,0,0-9.18-9A8.54,8.54,0,0,0,258.56,40.23Z" transform="translate(-61.7 -13.06)"/><path class="cls-1" d="M293.06,30.57h0.12a10.41,10.41,0,0,1,8-4.08c5.1,0,9.18,3.48,9.18,10.86V54h-5.34V37.29c0-4-2-6.54-5.28-6.54-2.34,0-4.2,1.08-6.72,3.9V54h-5.34V27h5.34v3.54Z" transform="translate(-61.7 -13.06)"/><path class="cls-1" d="M340.34,51.33a17.53,17.53,0,0,1-10.74,3.18c-8.4,0-13.08-6.9-13.08-14.34,0-8.16,5.16-13.68,12.6-13.68,7.14,0,11.7,4.86,11.7,14.82h-19c0.84,5.34,3.9,8.1,9.06,8.1a17.15,17.15,0,0,0,9.42-3.24v5.16Zm-4.8-13.56c-0.18-4.08-2.52-6.66-6.3-6.66-4.08,0-6.54,2.4-7.26,6.66h13.56Z" transform="translate(-61.7 -13.06)"/><path class="cls-2" d="M218.38,62.06h1.46V73h-1.57V64.48l-3.36,4.22h-0.29l-3.39-4.22V73h-1.56V62.06h1.48l3.63,4.48Z" transform="translate(-61.7 -13.06)"/><path class="cls-2" d="M226.52,68.65v3.05q0,0.37.25,0.37a1.71,1.71,0,0,0,.8-0.38v0.87a4.59,4.59,0,0,1-.78.43,1.69,1.69,0,0,1-.61.11,1,1,0,0,1-1.08-.72,3.09,3.09,0,0,1-1.93.7,1.7,1.7,0,0,1-1.25-.5,1.68,1.68,0,0,1-.5-1.25,1.76,1.76,0,0,1,.49-1.21,3.31,3.31,0,0,1,1.39-.85l1.82-.62V68.27a1.15,1.15,0,0,0-1.3-1.3,3.12,3.12,0,0,0-2.27,1.2V66.62a3,3,0,0,1,2.38-1,2.75,2.75,0,0,1,1.87.61,1.93,1.93,0,0,1,.42.52,1.89,1.89,0,0,1,.24.65A9.55,9.55,0,0,1,226.52,68.65Zm-1.4,2.9V69.42l-1,.37a3.23,3.23,0,0,0-1,.58,1.05,1.05,0,0,0,0,1.46,1,1,0,0,0,.74.28A1.79,1.79,0,0,0,225.12,71.55Z" transform="translate(-61.7 -13.06)"/><path class="cls-2" d="M227.82,66.93l2.67-2.62v1.48h2.27v1.28h-2.27v3.52a1,1,0,0,0,1,1.23,3.17,3.17,0,0,0,1.62-.51v1.33a3.59,3.59,0,0,1-1.79.46,2.37,2.37,0,0,1-1.62-.57,1.61,1.61,0,0,1-.34-0.39,2,2,0,0,1-.22-0.56,6.33,6.33,0,0,1-.09-1.32V67.07h-1.25V66.93Z" transform="translate(-61.7 -13.06)"/><path class="cls-2" d="M240.28,69.5h-5.05a2.34,2.34,0,0,0,.69,1.64,2.28,2.28,0,0,0,1.64.61,4.28,4.28,0,0,0,2.59-.87v1.39a4.74,4.74,0,0,1-1.3.63,5.44,5.44,0,0,1-1.51.19,3.39,3.39,0,0,1-1.92-.49,3.58,3.58,0,0,1-1.18-1.32,4.05,4.05,0,0,1-.44-1.93,3.82,3.82,0,0,1,.93-2.67,3.11,3.11,0,0,1,2.41-1,2.85,2.85,0,0,1,2.28,1,4,4,0,0,1,.85,2.68V69.5Zm-5-.85h3.62a2,2,0,0,0-.51-1.31,1.63,1.63,0,0,0-1.22-.46,1.75,1.75,0,0,0-1.25.46A2.29,2.29,0,0,0,235.26,68.65Z" transform="translate(-61.7 -13.06)"/><path class="cls-2" d="M243.34,65.79v1.65l0.08-.12q1-1.66,2.06-1.66a2.55,2.55,0,0,1,1.68.81l-0.75,1.25A2.11,2.11,0,0,0,245,67a1.47,1.47,0,0,0-1.19.66,2.48,2.48,0,0,0-.5,1.55V73h-1.43V65.79h1.43Z" transform="translate(-61.7 -13.06)"/><path class="cls-2" d="M248.89,62.76a0.84,0.84,0,0,1,.6.24,0.79,0.79,0,0,1,.25.59,0.81,0.81,0,0,1-.25.59,0.82,0.82,0,0,1-.6.25,0.79,0.79,0,0,1-.58-0.25,0.81,0.81,0,0,1,0-1.17A0.79,0.79,0,0,1,248.89,62.76Zm-0.7,3h1.42V73h-1.42V65.79Z" transform="translate(-61.7 -13.06)"/><path class="cls-2" d="M256.18,68.65v3.05q0,0.37.25,0.37a1.71,1.71,0,0,0,.8-0.38v0.87a4.59,4.59,0,0,1-.78.43,1.69,1.69,0,0,1-.61.11,1,1,0,0,1-1.08-.72,3.09,3.09,0,0,1-1.93.7,1.7,1.7,0,0,1-1.25-.5,1.68,1.68,0,0,1-.5-1.25,1.76,1.76,0,0,1,.49-1.21,3.31,3.31,0,0,1,1.39-.85l1.82-.62V68.27a1.15,1.15,0,0,0-1.3-1.3,3.12,3.12,0,0,0-2.27,1.2V66.62a3,3,0,0,1,2.38-1,2.75,2.75,0,0,1,1.87.61,1.93,1.93,0,0,1,.42.52,1.89,1.89,0,0,1,.24.65A9.55,9.55,0,0,1,256.18,68.65Zm-1.4,2.9V69.42l-1,.37a3.23,3.23,0,0,0-1,.58,1.05,1.05,0,0,0,0,1.46,1,1,0,0,0,.74.28A1.79,1.79,0,0,0,254.78,71.55Z" transform="translate(-61.7 -13.06)"/><path class="cls-2" d="M258.52,62.06h1.42V73h-1.42V62.06Z" transform="translate(-61.7 -13.06)"/><path class="cls-2" d="M268.52,62h1.1l4.89,11h-1.6l-1.46-3.23h-4.66L265.44,73h-1.61Zm2.29,6.35-1.76-4-1.63,4h3.39Z" transform="translate(-61.7 -13.06)"/><path class="cls-2" d="M275.16,72.46V70.93a6.46,6.46,0,0,0,1.23.68,2.86,2.86,0,0,0,1.06.26,1.32,1.32,0,0,0,.77-0.22,0.63,0.63,0,0,0,.32-0.52,0.71,0.71,0,0,0-.21-0.52,4.84,4.84,0,0,0-.89-0.6,6.32,6.32,0,0,1-1.8-1.31,1.87,1.87,0,0,1-.43-1.18,1.66,1.66,0,0,1,.64-1.35,2.55,2.55,0,0,1,1.66-.52,4.57,4.57,0,0,1,2.16.59v1.41a4.34,4.34,0,0,0-2.07-.77,1.15,1.15,0,0,0-.67.18,0.54,0.54,0,0,0-.25.47,0.67,0.67,0,0,0,.23.48,4,4,0,0,0,.81.55l0.51,0.29q1.8,1,1.8,2.25a1.79,1.79,0,0,1-.69,1.45,2.71,2.71,0,0,1-1.78.57,4.35,4.35,0,0,1-1.14-.14A7.62,7.62,0,0,1,275.16,72.46Z" transform="translate(-61.7 -13.06)"/><path class="cls-2" d="M281.32,72.46V70.93a6.46,6.46,0,0,0,1.23.68,2.86,2.86,0,0,0,1.06.26,1.32,1.32,0,0,0,.77-0.22,0.63,0.63,0,0,0,.32-0.52,0.71,0.71,0,0,0-.21-0.52,4.84,4.84,0,0,0-.89-0.6,6.32,6.32,0,0,1-1.8-1.31,1.87,1.87,0,0,1-.43-1.18,1.66,1.66,0,0,1,.64-1.35,2.55,2.55,0,0,1,1.66-.52,4.57,4.57,0,0,1,2.16.59v1.41a4.34,4.34,0,0,0-2.07-.77,1.15,1.15,0,0,0-.67.18,0.54,0.54,0,0,0-.25.47,0.67,0.67,0,0,0,.23.48,4,4,0,0,0,.81.55l0.51,0.29q1.8,1,1.8,2.25a1.79,1.79,0,0,1-.69,1.45,2.71,2.71,0,0,1-1.78.57,4.35,4.35,0,0,1-1.14-.14A7.62,7.62,0,0,1,281.32,72.46Z" transform="translate(-61.7 -13.06)"/><path class="cls-2" d="M292.34,68.65v3.05q0,0.37.25,0.37a1.71,1.71,0,0,0,.8-0.38v0.87a4.59,4.59,0,0,1-.78.43,1.69,1.69,0,0,1-.61.11,1,1,0,0,1-1.08-.72,3.09,3.09,0,0,1-1.93.7,1.7,1.7,0,0,1-1.25-.5,1.68,1.68,0,0,1-.5-1.25,1.76,1.76,0,0,1,.49-1.21,3.31,3.31,0,0,1,1.39-.85l1.82-.62V68.27a1.15,1.15,0,0,0-1.3-1.3,3.12,3.12,0,0,0-2.27,1.2V66.62a3,3,0,0,1,2.38-1,2.75,2.75,0,0,1,1.87.61,1.93,1.93,0,0,1,.42.52,1.89,1.89,0,0,1,.24.65A9.55,9.55,0,0,1,292.34,68.65Zm-1.4,2.9V69.42l-1,.37a3.23,3.23,0,0,0-1,.58,1.05,1.05,0,0,0,0,1.46,1,1,0,0,0,.74.28A1.79,1.79,0,0,0,290.95,71.55Z" transform="translate(-61.7 -13.06)"/><path class="cls-2" d="M298.43,65.79H300l-5.09,10.85h-1.59l2.44-5.21L293,65.79h1.62l1.94,4.06Z" transform="translate(-61.7 -13.06)"/><path class="cls-2" d="M305.68,73V62.06h3.68a7.76,7.76,0,0,1,3.52.67,5,5,0,0,1,2.06,2,5.45,5.45,0,0,1,.77,2.83,5.33,5.33,0,0,1-.42,2.09,5.4,5.4,0,0,1-3.05,2.94,5.44,5.44,0,0,1-1.13.32,15.16,15.16,0,0,1-2,.08h-3.45Zm3.52-9.51h-2v8.12h2a8,8,0,0,0,1.82-.16,4.25,4.25,0,0,0,1.08-.41,3.65,3.65,0,0,0,.79-0.61,4,4,0,0,0,1.16-3,3.74,3.74,0,0,0-1.19-2.87,3.79,3.79,0,0,0-1-.68,4.2,4.2,0,0,0-1.07-.35A11,11,0,0,0,309.2,63.45Z" transform="translate(-61.7 -13.06)"/><path class="cls-2" d="M322,68.65v3.05q0,0.37.25,0.37a1.71,1.71,0,0,0,.8-0.38v0.87a4.59,4.59,0,0,1-.78.43,1.69,1.69,0,0,1-.61.11,1,1,0,0,1-1.08-.72,3.09,3.09,0,0,1-1.93.7,1.7,1.7,0,0,1-1.25-.5,1.68,1.68,0,0,1-.5-1.25,1.76,1.76,0,0,1,.49-1.21,3.31,3.31,0,0,1,1.39-.85l1.82-.62V68.27a1.15,1.15,0,0,0-1.3-1.3,3.12,3.12,0,0,0-2.27,1.2V66.62a3,3,0,0,1,2.38-1,2.75,2.75,0,0,1,1.87.61,1.93,1.93,0,0,1,.42.52,1.89,1.89,0,0,1,.24.65A9.55,9.55,0,0,1,322,68.65Zm-1.4,2.9V69.42l-1,.37a3.23,3.23,0,0,0-1,.58,1.05,1.05,0,0,0,0,1.46,1,1,0,0,0,.74.28A1.79,1.79,0,0,0,320.59,71.55Z" transform="translate(-61.7 -13.06)"/><path class="cls-2" d="M323.29,66.93L326,64.3v1.48h2.27v1.28H326v3.52a1,1,0,0,0,1,1.23,3.17,3.17,0,0,0,1.62-.51v1.33a3.59,3.59,0,0,1-1.79.46,2.37,2.37,0,0,1-1.62-.57,1.61,1.61,0,0,1-.34-0.39,2,2,0,0,1-.22-0.56,6.33,6.33,0,0,1-.09-1.32V67.07h-1.25V66.93Z" transform="translate(-61.7 -13.06)"/><path class="cls-2" d="M334.14,68.65v3.05q0,0.37.25,0.37a1.71,1.71,0,0,0,.8-0.38v0.87a4.59,4.59,0,0,1-.78.43,1.69,1.69,0,0,1-.61.11,1,1,0,0,1-1.08-.72,3.09,3.09,0,0,1-1.93.7,1.7,1.7,0,0,1-1.25-.5,1.68,1.68,0,0,1-.5-1.25,1.76,1.76,0,0,1,.49-1.21,3.31,3.31,0,0,1,1.39-.85l1.82-.62V68.27a1.15,1.15,0,0,0-1.3-1.3,3.12,3.12,0,0,0-2.27,1.2V66.62a3,3,0,0,1,2.38-1,2.75,2.75,0,0,1,1.87.61,1.93,1.93,0,0,1,.42.52,1.89,1.89,0,0,1,.24.65A9.55,9.55,0,0,1,334.14,68.65Zm-1.4,2.9V69.42l-1,.37a3.23,3.23,0,0,0-1,.58,1.05,1.05,0,0,0,0,1.46,1,1,0,0,0,.74.28A1.79,1.79,0,0,0,332.74,71.55Z" transform="translate(-61.7 -13.06)"/><path class="cls-2" d="M336.39,62.06h1.42V66.3a3.29,3.29,0,0,1,2-.67,2.79,2.79,0,0,1,2.23,1,4,4,0,0,1,.87,2.65,3.71,3.71,0,0,1-1,2.76,3.76,3.76,0,0,1-2.77,1,7.76,7.76,0,0,1-1.46-.15,4.82,4.82,0,0,1-1.22-.37V62.06Zm1.42,5.6v3.89a5.12,5.12,0,0,0,1.49.22,2,2,0,0,0,1.54-.67,2.5,2.5,0,0,0,.6-1.73,2.64,2.64,0,0,0-.56-1.74,1.81,1.81,0,0,0-1.46-.67A2.51,2.51,0,0,0,337.81,67.66Z" transform="translate(-61.7 -13.06)"/><path class="cls-2" d="M349,68.65v3.05q0,0.37.25,0.37a1.71,1.71,0,0,0,.8-0.38v0.87a4.59,4.59,0,0,1-.78.43,1.69,1.69,0,0,1-.61.11,1,1,0,0,1-1.08-.72,3.09,3.09,0,0,1-1.93.7,1.7,1.7,0,0,1-1.25-.5,1.68,1.68,0,0,1-.5-1.25,1.76,1.76,0,0,1,.49-1.21,3.31,3.31,0,0,1,1.39-.85l1.82-.62V68.27a1.15,1.15,0,0,0-1.3-1.3,3.12,3.12,0,0,0-2.27,1.2V66.62a3,3,0,0,1,2.38-1,2.75,2.75,0,0,1,1.87.61,1.93,1.93,0,0,1,.42.52,1.89,1.89,0,0,1,.24.65A9.55,9.55,0,0,1,349,68.65Zm-1.4,2.9V69.42l-1,.37a3.23,3.23,0,0,0-1,.58,1.05,1.05,0,0,0,0,1.46,1,1,0,0,0,.74.28A1.79,1.79,0,0,0,347.57,71.55Z" transform="translate(-61.7 -13.06)"/><path class="cls-2" d="M350.93,72.46V70.93a6.46,6.46,0,0,0,1.23.68,2.86,2.86,0,0,0,1.06.26,1.32,1.32,0,0,0,.77-0.22,0.63,0.63,0,0,0,.32-0.52,0.71,0.71,0,0,0-.21-0.52,4.84,4.84,0,0,0-.89-0.6,6.32,6.32,0,0,1-1.8-1.31,1.87,1.87,0,0,1-.43-1.18,1.66,1.66,0,0,1,.64-1.35,2.55,2.55,0,0,1,1.66-.52,4.57,4.57,0,0,1,2.16.59v1.41a4.34,4.34,0,0,0-2.07-.77,1.15,1.15,0,0,0-.67.18,0.54,0.54,0,0,0-.25.47,0.67,0.67,0,0,0,.23.48,3.94,3.94,0,0,0,.81.55L354,68.83q1.8,1,1.8,2.25a1.79,1.79,0,0,1-.69,1.45,2.71,2.71,0,0,1-1.78.57,4.35,4.35,0,0,1-1.14-.14A7.62,7.62,0,0,1,350.93,72.46Z" transform="translate(-61.7 -13.06)"/><path class="cls-2" d="M363.56,69.5h-5.05a2.34,2.34,0,0,0,.69,1.64,2.28,2.28,0,0,0,1.64.61,4.28,4.28,0,0,0,2.59-.87v1.39a4.74,4.74,0,0,1-1.3.63,5.44,5.44,0,0,1-1.51.19,3.39,3.39,0,0,1-1.92-.49,3.58,3.58,0,0,1-1.18-1.32,4.05,4.05,0,0,1-.44-1.93,3.82,3.82,0,0,1,.93-2.67,3.11,3.11,0,0,1,2.41-1,2.85,2.85,0,0,1,2.28,1,4,4,0,0,1,.85,2.68V69.5Zm-5-.85h3.62a2,2,0,0,0-.51-1.31,1.63,1.63,0,0,0-1.22-.46,1.75,1.75,0,0,0-1.25.46A2.29,2.29,0,0,0,358.54,68.65Z" transform="translate(-61.7 -13.06)"/></svg>