<svg id="Layer_1" data-name="Layer 1" xmlns="http://www.w3.org/2000/svg" viewBox="0 0 384.08 67.75"><defs><style>.cls-1{fill:#f08590;}.cls-2{fill:#f6b2b6;}</style></defs><title>rp</title><path class="cls-1" d="M25,28.67V36h0.11q3.49-7.85,8.15-7.85,2.22,0,5.33,2.33l-2.22,7.12a9.82,9.82,0,0,0-4.77-1.9q-2.79,0-4.7,3.46a17.42,17.42,0,0,0-1.91,4V54.22h-8V28.67h8Z" transform="translate(-16.91 -7.25)"/><path class="cls-1" d="M67.65,47.92v4.47a15.09,15.09,0,0,1-7.53,2.33q-3.79,0-4.49-2.87a14.83,14.83,0,0,1-8.42,2.87,7.28,7.28,0,0,1-5.06-1.88,5.75,5.75,0,0,1-2.08-4.38,7.09,7.09,0,0,1,2.15-5.38q2.15-2,13-5.27,0.27-4.28-4.44-4.28a13.15,13.15,0,0,0-9.42,4.28V31.24a20.65,20.65,0,0,1,11.07-3.11q10.83,0,10.83,7.78V47.56q0,1.79,1.33,1.79A6.33,6.33,0,0,0,67.65,47.92Zm-12.4.1V41.82a22.48,22.48,0,0,0-5.54,2.54,3.44,3.44,0,0,0-1.5,2.87A2.69,2.69,0,0,0,49,49.14a2.44,2.44,0,0,0,1.84.8A6.66,6.66,0,0,0,55.25,48Z" transform="translate(-16.91 -7.25)"/><path class="cls-1" d="M96.69,16.4V54.22h-8V52.17a10.84,10.84,0,0,1-7.09,2.54A11,11,0,0,1,73,50.92a13.66,13.66,0,0,1-3.43-9.51,13.43,13.43,0,0,1,3.48-9.57A11.68,11.68,0,0,1,82,28.13a14.84,14.84,0,0,1,6.66,1.62V16.4h8Zm-8,30.81V35a7.91,7.91,0,0,0-4.49-1.49,5.71,5.71,0,0,0-4.72,2.11,9.26,9.26,0,0,0-1.69,5.93,8.85,8.85,0,0,0,1.68,5.64,5.4,5.4,0,0,0,4.47,2.13A7,7,0,0,0,88.65,47.21Z" transform="translate(-16.91 -7.25)"/><rect class="cls-1" x="86.55" y="21.42" width="8.04" height="25.56"/><path class="cls-1" d="M131.51,28.13a15.3,15.3,0,0,1,10.19,3.52q4.18,3.52,4.18,9.81t-4.25,9.78a15.52,15.52,0,0,1-10.13,3.47A14.84,14.84,0,0,1,121.1,51a12.42,12.42,0,0,1-4-9.61,12.21,12.21,0,0,1,4.13-9.65A15.07,15.07,0,0,1,131.51,28.13Zm0,21.82q5.77,0,5.77-8.7,0-8.33-5.77-8.33a5,5,0,0,0-4.32,2.2,10.79,10.79,0,0,0-1.56,6.29Q125.64,49.95,131.51,49.95Z" transform="translate(-16.91 -7.25)"/><path class="cls-1" d="M201.22,54.22V50.57A10.61,10.61,0,0,1,193,54.71a9.21,9.21,0,0,1-6.77-2.57A9.57,9.57,0,0,1,183.6,45V28.67h8V44.46q0,4.87,4,4.87a5.07,5.07,0,0,0,3.88-1.77q1.61-1.77,1.61-2.61V28.67h8.09V54.22h-8Z" transform="translate(-16.91 -7.25)"/><path class="cls-1" d="M224.18,28.67V36h0.11q3.49-7.85,8.15-7.85,2.22,0,5.33,2.33l-2.22,7.12a9.82,9.82,0,0,0-4.76-1.9q-2.79,0-4.7,3.46a17.41,17.41,0,0,0-1.91,4V54.22h-8V28.67h8Z" transform="translate(-16.91 -7.25)"/><path class="cls-1" d="M274.16,28.67v5.5h-9.31V44.69a4.17,4.17,0,0,0,1,3,3.79,3.79,0,0,0,2.88,1.1,11.87,11.87,0,0,0,5.39-1.49v5.82a19.36,19.36,0,0,1-7.44,1.6q-4.71,0-7.31-2.44t-2.6-7.15v-11h-3.65V32.59l10.69-12h1v8h9.31Z" transform="translate(-16.91 -7.25)"/><path class="cls-2" d="M301.45,49.89a4.83,4.83,0,1,1,8.24,3.41,4.83,4.83,0,0,1-6.82,0A4.62,4.62,0,0,1,301.45,49.89Z" transform="translate(-16.91 -7.25)"/><path class="cls-2" d="M330.33,28.13a15.3,15.3,0,0,1,10.19,3.52q4.18,3.52,4.18,9.81t-4.25,9.78a15.52,15.52,0,0,1-10.13,3.47A14.84,14.84,0,0,1,319.92,51a12.41,12.41,0,0,1-4-9.61A12.21,12.21,0,0,1,320,31.76,15.07,15.07,0,0,1,330.33,28.13Zm0,21.82q5.77,0,5.77-8.7,0-8.33-5.77-8.33a5,5,0,0,0-4.32,2.2,10.78,10.78,0,0,0-1.56,6.29Q324.46,49.95,330.33,49.95Z" transform="translate(-16.91 -7.25)"/><path class="cls-2" d="M358.35,28.67V36h0.11q3.49-7.85,8.15-7.85,2.22,0,5.33,2.33l-2.22,7.12a9.82,9.82,0,0,0-4.76-1.9q-2.79,0-4.7,3.46a17.47,17.47,0,0,0-1.91,4V54.22h-8V28.67h8Z" transform="translate(-16.91 -7.25)"/><path class="cls-2" d="M401,28.67v5.39h-3.65a8.36,8.36,0,0,1,1.27,4.25,8.14,8.14,0,0,1-2.22,5.5,9.79,9.79,0,0,1-6.56,3q-4.35.47-4.93,0.89a1.29,1.29,0,0,0-.58,1.1,1.24,1.24,0,0,0,.76,1.1q0.76,0.42,6,.87t7.26,2.74a7.26,7.26,0,0,1,2,4.91,7.1,7.1,0,0,1-3.48,6.39Q393.39,67,386.81,67t-10.18-2q-3.46-2-3.47-5.39,0-4.66,6.82-6.5-3.09-.92-3.09-3.33,0-2.81,4.66-3.87a8.94,8.94,0,0,1-5.14-2.71,7.3,7.3,0,0,1-2-5.17,8.77,8.77,0,0,1,2.92-6.5q2.92-2.82,8.5-2.82H401ZM387.19,62.21a8.11,8.11,0,0,0,4.17-.95A2.69,2.69,0,0,0,393,59q0-2.82-6.25-2.81a10,10,0,0,0-4.47.83,2.48,2.48,0,0,0-1.62,2.21Q380.61,62.21,387.19,62.21Zm-0.66-28.78a4.46,4.46,0,0,0-3.31,1.35,4.52,4.52,0,0,0-1.34,3.3,4.41,4.41,0,0,0,1.38,3.23,4.48,4.48,0,0,0,3.27,1.37,4.29,4.29,0,0,0,3.24-1.44,4.83,4.83,0,0,0,1.35-3.44,4.19,4.19,0,0,0-1.31-3.1A4.49,4.49,0,0,0,386.52,33.43Z" transform="translate(-16.91 -7.25)"/><path class="cls-1" d="M244.92,23.63a4.46,4.46,0,0,0,4.44-4.44,4.28,4.28,0,0,0-1.3-3.14,6.14,6.14,0,0,0-3.14-1.3,14.54,14.54,0,0,1-4-2.37c-7.72-6.65-11.68-6.85-19.22,0h0c-4.41,4-4.41,4-8.82,0-7.55-6.85-11.68-6.85-19.22,0h0c-4.41,4-4.41,4-8.82,0-7.55-6.85-11.68-6.85-19.22,0h0c-4.41,4-4.41,4-8.82,0-7.55-6.85-11.68-6.85-19.22,0h0c-4.41,4-4.41,4-8.82,0-6.93-6.29-11-6.79-17.44-1.53h0s-1.21,1.09-1.77,1.54c-0.76.61-2.54,1.87-3.8,2.74a4.44,4.44,0,0,0-1.35.93,4.43,4.43,0,0,0,0,6.27,4.38,4.38,0,0,0,6.25,0l5.63-5.59c2.95-2.55,3.46-2.1,7.28,1.38s6.67,5.07,9.61,5.07,5.88-1.69,9.61-5.07l-3-3.3,3,3.3c4.41-4,4.41-4,8.82,0,3.73,3.38,6.67,5.07,9.61,5.07s5.88-1.69,9.61-5.07l-3.1-3.42,3.1,3.42c4.41-4,4.41-4,8.82,0,3.73,3.38,6.67,5.07,9.61,5.07s5.88-1.69,9.61-5.07l-3.1-3.42,3.1,3.42c4.41-4,4.41-4,8.83,0,3.73,3.38,6.67,5.07,9.61,5.07s5.88-1.69,9.61-5.07l-2.6-2.87,2.6,2.86c4.41-4,4.41-4,8.82,0,2.9,2.63,5.31,4.51,7.62,5.21A4.3,4.3,0,0,0,244.92,23.63Z" transform="translate(-16.91 -7.25)"/><rect class="cls-1" x="224.03" y="21.42" width="8.04" height="25.56"/><path class="cls-1" d="M294.78,28.67L289,41.83,283.6,28.67H275L285,50s-4.52,11.22-6.94,14.5c-2.88,3.92-3.72,3.32-7.84-.41L267.65,67l2.6-2.87c-7.45-6.76-11.76-6.76-19.22,0-1.75,1.59-2.81,2.54-3.72,2.86h-1.39c-0.91-.33-2-1.28-3.72-2.86L239.6,67l2.6-2.87c-7.45-6.76-11.76-6.76-19.22,0-1.75,1.59-2.8,2.54-3.72,2.86h-1.39c-0.91-.33-2-1.28-3.72-2.86L211.56,67l2.6-2.87c-7.45-6.76-11.76-6.76-19.22,0-1.75,1.59-2.8,2.54-3.72,2.86h-1.39c-0.91-.33-2-1.28-3.72-2.86L183.51,67h0l2.6-2.87c-7.45-6.76-11.76-6.76-19.22,0-1.75,1.59-2.81,2.54-3.72,2.86h-1.39c-0.7-.25-2.13-0.24-2.63-1.89V53a13,13,0,0,0,6.58,1.76A11.88,11.88,0,0,0,174.87,51q3.45-3.71,3.45-9.86a13.21,13.21,0,0,0-3.44-9.24,11.18,11.18,0,0,0-15.73-1V28.67h-8V66.5a5.8,5.8,0,0,0,.27,1.89,18.68,18.68,0,0,0,1.31,1.79c3.77,3.42,6.87,4.81,9.79,4.81s5.84-1.71,9.61-5.14c1.76-1.59,2.81-2.54,3.73-2.86h1.37c0.91,0.32,2,1.27,3.73,2.87,3.77,3.42,6.69,5.14,9.61,5.14s5.84-1.71,9.61-5.14c1.76-1.59,2.81-2.54,3.73-2.87h1.38c0.91,0.33,2,1.27,3.73,2.87,3.77,3.42,6.69,5.14,9.61,5.14s5.84-1.71,9.61-5.14c1.75-1.59,2.81-2.54,3.72-2.86h1.38c0.91,0.33,2,1.27,3.72,2.87h0c3.77,3.42,6.69,5.14,9.61,5.14s5.84-1.71,9.61-5.14C258,68.27,259,67.32,260,67h1.37c0.91,0.32,2,1.27,3.73,2.87h0c3.77,3.42,6.69,5.14,9.61,5.14s6.47-1,9.31-5.25a26.62,26.62,0,0,0,3-5.19v0l16.24-35.87h-8.43ZM159.15,35.89a8.07,8.07,0,0,1,5-2.06,5.33,5.33,0,0,1,4.45,2,9,9,0,0,1,1.58,5.69,8.68,8.68,0,0,1-1.72,5.67,5.69,5.69,0,0,1-4.64,2.1,7.76,7.76,0,0,1-4.66-1.68V35.89Z" transform="translate(-16.91 -7.25)"/></svg>